<mxfile host="app.diagrams.net" modified="2022-05-20T15:05:51.431Z" agent="5.0 (Macintosh; Intel Mac OS X 10_15_7) AppleWebKit/537.36 (KHTML, like Gecko) Chrome/101.0.4951.64 Safari/537.36" etag="VFRpGvyKQH7Tnr_JH08f" version="18.0.6" type="github">
  <diagram id="rzBOHS2imSivp7Q6g7ge" name="Page-1">
    <mxGraphModel dx="815" dy="571" grid="1" gridSize="10" guides="1" tooltips="1" connect="1" arrows="1" fold="1" page="1" pageScale="1" pageWidth="827" pageHeight="1169" math="0" shadow="0">
      <root>
        <mxCell id="0" />
        <mxCell id="1" parent="0" />
        <mxCell id="j9mZeKwOuy3LwzMowdbu-10" value="" style="rounded=0;whiteSpace=wrap;html=1;dashed=1;fillColor=none;strokeColor=#FF9933;" parent="1" vertex="1">
          <mxGeometry x="57" y="128" width="553" height="50" as="geometry" />
        </mxCell>
        <mxCell id="j9mZeKwOuy3LwzMowdbu-2" value="" style="sketch=0;points=[[0,0,0],[0.25,0,0],[0.5,0,0],[0.75,0,0],[1,0,0],[0,1,0],[0.25,1,0],[0.5,1,0],[0.75,1,0],[1,1,0],[0,0.25,0],[0,0.5,0],[0,0.75,0],[1,0.25,0],[1,0.5,0],[1,0.75,0]];outlineConnect=0;fontColor=#232F3E;gradientColor=#945DF2;gradientDirection=north;fillColor=#5A30B5;strokeColor=#ffffff;dashed=0;verticalLabelPosition=bottom;verticalAlign=top;align=center;html=1;fontSize=12;fontStyle=0;aspect=fixed;shape=mxgraph.aws4.resourceIcon;resIcon=mxgraph.aws4.api_gateway;" parent="1" vertex="1">
          <mxGeometry x="301" y="36" width="60" height="60" as="geometry" />
        </mxCell>
        <mxCell id="j9mZeKwOuy3LwzMowdbu-3" value="creating" style="rounded=0;whiteSpace=wrap;html=1;" parent="1" vertex="1">
          <mxGeometry x="70" y="140" width="80" height="21" as="geometry" />
        </mxCell>
        <mxCell id="j9mZeKwOuy3LwzMowdbu-4" value="publishing" style="rounded=0;whiteSpace=wrap;html=1;" parent="1" vertex="1">
          <mxGeometry x="190" y="140" width="70" height="21" as="geometry" />
        </mxCell>
        <mxCell id="j9mZeKwOuy3LwzMowdbu-5" value="securing" style="rounded=0;whiteSpace=wrap;html=1;" parent="1" vertex="1">
          <mxGeometry x="300" y="140" width="70" height="21" as="geometry" />
        </mxCell>
        <mxCell id="j9mZeKwOuy3LwzMowdbu-6" value="maintaining" style="rounded=0;whiteSpace=wrap;html=1;" parent="1" vertex="1">
          <mxGeometry x="400" y="140" width="70" height="21" as="geometry" />
        </mxCell>
        <mxCell id="j9mZeKwOuy3LwzMowdbu-7" value="monitoring" style="rounded=0;whiteSpace=wrap;html=1;" parent="1" vertex="1">
          <mxGeometry x="530" y="140" width="70" height="21" as="geometry" />
        </mxCell>
        <mxCell id="qNnacVsJ2TZ5Um2_h7-j-1" value="Stateless" style="rounded=0;whiteSpace=wrap;html=1;" parent="1" vertex="1">
          <mxGeometry x="149" y="447" width="80" height="21" as="geometry" />
        </mxCell>
        <mxCell id="qNnacVsJ2TZ5Um2_h7-j-7" value="Apis" style="ellipse;whiteSpace=wrap;html=1;dashed=1;strokeColor=#FF9933;fillColor=none;" parent="1" vertex="1">
          <mxGeometry x="289" y="220" width="100" height="52" as="geometry" />
        </mxCell>
        <mxCell id="qNnacVsJ2TZ5Um2_h7-j-8" value="REST" style="rounded=0;whiteSpace=wrap;html=1;" parent="1" vertex="1">
          <mxGeometry x="57" y="514" width="80" height="21" as="geometry" />
        </mxCell>
        <mxCell id="qNnacVsJ2TZ5Um2_h7-j-9" value="HTTP" style="rounded=0;whiteSpace=wrap;html=1;" parent="1" vertex="1">
          <mxGeometry x="279" y="514" width="70" height="21" as="geometry" />
        </mxCell>
        <mxCell id="qNnacVsJ2TZ5Um2_h7-j-10" value="Routes and Methods&amp;nbsp;" style="rounded=0;whiteSpace=wrap;html=1;" parent="1" vertex="1">
          <mxGeometry x="258" y="566" width="140" height="40" as="geometry" />
        </mxCell>
        <mxCell id="qNnacVsJ2TZ5Um2_h7-j-11" value="&lt;div style=&quot;text-align: left&quot;&gt;&lt;ul&gt;&lt;li&gt;&lt;span&gt;Integrated with Backend HTTP endpoints&lt;/span&gt;&lt;/li&gt;&lt;li&gt;&lt;span&gt;Integrated with Lamda functions&lt;/span&gt;&lt;/li&gt;&lt;/ul&gt;&lt;/div&gt;" style="rounded=0;whiteSpace=wrap;html=1;" parent="1" vertex="1">
          <mxGeometry x="242" y="637" width="172" height="70" as="geometry" />
        </mxCell>
        <mxCell id="qNnacVsJ2TZ5Um2_h7-j-12" value="monitoring" style="rounded=0;whiteSpace=wrap;html=1;" parent="1" vertex="1">
          <mxGeometry x="543" y="554" width="70" height="21" as="geometry" />
        </mxCell>
        <mxCell id="e3F0U84aLfVKptTIg71--1" value="" style="shape=curlyBracket;whiteSpace=wrap;html=1;rounded=1;flipH=1;direction=north;" parent="1" vertex="1">
          <mxGeometry x="57" y="190" width="563" height="20" as="geometry" />
        </mxCell>
        <mxCell id="e3F0U84aLfVKptTIg71--3" value="" style="shape=curlyBracket;whiteSpace=wrap;html=1;rounded=1;flipH=1;direction=north;" parent="1" vertex="1">
          <mxGeometry x="52" y="290" width="563" height="20" as="geometry" />
        </mxCell>
        <mxCell id="e3F0U84aLfVKptTIg71--4" value="Supports" style="ellipse;whiteSpace=wrap;html=1;dashed=1;strokeColor=#FF9933;fillColor=none;" parent="1" vertex="1">
          <mxGeometry x="289" y="350" width="100" height="52" as="geometry" />
        </mxCell>
        <mxCell id="e3F0U84aLfVKptTIg71--10" value="" style="line;strokeWidth=2;direction=south;html=1;" parent="1" vertex="1">
          <mxGeometry x="331" y="97" width="1" height="30" as="geometry" />
        </mxCell>
        <mxCell id="e3F0U84aLfVKptTIg71--11" value="StateFull" style="rounded=0;whiteSpace=wrap;html=1;" parent="1" vertex="1">
          <mxGeometry x="463" y="450" width="80" height="21" as="geometry" />
        </mxCell>
        <mxCell id="e3F0U84aLfVKptTIg71--12" value="" style="line;strokeWidth=2;direction=south;html=1;" parent="1" vertex="1">
          <mxGeometry x="188" y="468" width="1" height="30" as="geometry" />
        </mxCell>
        <mxCell id="e3F0U84aLfVKptTIg71--19" value="" style="shape=partialRectangle;whiteSpace=wrap;html=1;bottom=1;right=1;left=1;top=0;fillColor=none;routingCenterX=-0.5;rotation=-180;direction=east;" parent="1" vertex="1">
          <mxGeometry x="86" y="498" width="234" height="15" as="geometry" />
        </mxCell>
        <mxCell id="e3F0U84aLfVKptTIg71--21" value="" style="line;strokeWidth=2;direction=south;html=1;" parent="1" vertex="1">
          <mxGeometry x="315" y="536" width="1" height="30" as="geometry" />
        </mxCell>
        <mxCell id="e3F0U84aLfVKptTIg71--22" value="" style="line;strokeWidth=2;direction=south;html=1;" parent="1" vertex="1">
          <mxGeometry x="316" y="607" width="1" height="30" as="geometry" />
        </mxCell>
        <mxCell id="e3F0U84aLfVKptTIg71--23" value="HTTP Methods" style="rounded=0;whiteSpace=wrap;html=1;" parent="1" vertex="1">
          <mxGeometry x="30" y="567" width="140" height="40" as="geometry" />
        </mxCell>
        <mxCell id="e3F0U84aLfVKptTIg71--24" value="&lt;div style=&quot;text-align: left&quot;&gt;&lt;ul&gt;&lt;li&gt;Lambda Function&lt;/li&gt;&lt;li&gt;AWS Services&lt;/li&gt;&lt;li&gt;HTTP Endpoint&lt;/li&gt;&lt;/ul&gt;&lt;/div&gt;" style="rounded=0;whiteSpace=wrap;html=1;" parent="1" vertex="1">
          <mxGeometry x="14" y="638" width="146" height="72" as="geometry" />
        </mxCell>
        <mxCell id="e3F0U84aLfVKptTIg71--25" value="" style="line;strokeWidth=2;direction=south;html=1;" parent="1" vertex="1">
          <mxGeometry x="87" y="537" width="1" height="30" as="geometry" />
        </mxCell>
        <mxCell id="e3F0U84aLfVKptTIg71--26" value="" style="line;strokeWidth=2;direction=south;html=1;" parent="1" vertex="1">
          <mxGeometry x="88" y="608" width="1" height="30" as="geometry" />
        </mxCell>
        <mxCell id="RHQa-X3_apYEFBSFGdYx-1" value="" style="endArrow=none;html=1;rounded=0;entryX=0.01;entryY=0.769;entryDx=0;entryDy=0;entryPerimeter=0;" edge="1" parent="1" target="e3F0U84aLfVKptTIg71--4">
          <mxGeometry width="50" height="50" relative="1" as="geometry">
            <mxPoint x="189" y="446" as="sourcePoint" />
            <mxPoint x="274.5999999999999" y="397.548" as="targetPoint" />
          </mxGeometry>
        </mxCell>
        <mxCell id="RHQa-X3_apYEFBSFGdYx-2" value="" style="endArrow=none;html=1;rounded=0;entryX=0.409;entryY=-0.199;entryDx=0;entryDy=0;entryPerimeter=0;" edge="1" parent="1" target="e3F0U84aLfVKptTIg71--11">
          <mxGeometry width="50" height="50" relative="1" as="geometry">
            <mxPoint x="389" y="380" as="sourcePoint" />
            <mxPoint x="469" y="440" as="targetPoint" />
          </mxGeometry>
        </mxCell>
      </root>
    </mxGraphModel>
  </diagram>
</mxfile>
